<?xml version="1.0" encoding="utf-8"?>
<!-- Generator: Adobe Illustrator 21.0.0, SVG Export Plug-In . SVG Version: 6.00 Build 0)  -->
<svg version="1.1" id="Layer_1" xmlns="http://www.w3.org/2000/svg" xmlns:xlink="http://www.w3.org/1999/xlink" x="0px" y="0px"
	 viewBox="0 0 16 16" style="enable-background:new 0 0 16 16;" xml:space="preserve">
<style type="text/css">
	.st0{fill:url(#SVGID_1_);}
	.st1{fill:url(#SVGID_2_);}
	.st2{fill:url(#SVGID_3_);}
</style>
<g>
	<g>
		<radialGradient id="SVGID_1_" cx="8.998400e-02" cy="17.5535" r="22.8801" gradientUnits="userSpaceOnUse">
			<stop  offset="0" style="stop-color:#FEC053"/>
			<stop  offset="0.3273" style="stop-color:#F2203E"/>
			<stop  offset="0.6485" style="stop-color:#B729A8"/>
			<stop  offset="1" style="stop-color:#5342D6"/>
		</radialGradient>
		<path class="st0" d="M11.4,16H4.6C2,16,0,14,0,11.4V4.6C0,2,2,0,4.6,0h6.9C14,0,16,2,16,4.6v6.9C16,14,14,16,11.4,16z M4.6,1.4
			c-1.8,0-3.2,1.4-3.2,3.2v6.9c0,1.8,1.4,3.2,3.2,3.2h6.9c1.8,0,3.2-1.4,3.2-3.2V4.6c0-1.8-1.4-3.2-3.2-3.2H4.6z"/>
	</g>
	<g>
		<radialGradient id="SVGID_2_" cx="8.998027e-02" cy="17.5535" r="22.8802" gradientUnits="userSpaceOnUse">
			<stop  offset="0" style="stop-color:#FEC053"/>
			<stop  offset="0.3273" style="stop-color:#F2203E"/>
			<stop  offset="0.6485" style="stop-color:#B729A8"/>
			<stop  offset="1" style="stop-color:#5342D6"/>
		</radialGradient>
		<path class="st1" d="M8,12.1c-2.3,0-4.1-1.8-4.1-4.1c0-2.3,1.8-4.1,4.1-4.1s4.1,1.8,4.1,4.1C12.1,10.3,10.3,12.1,8,12.1z M8,5.3
			C6.5,5.3,5.3,6.5,5.3,8s1.2,2.7,2.7,2.7s2.7-1.2,2.7-2.7S9.5,5.3,8,5.3z"/>
	</g>
	<g>
		<radialGradient id="SVGID_3_" cx="8.988818e-02" cy="17.5531" r="22.88" gradientUnits="userSpaceOnUse">
			<stop  offset="0" style="stop-color:#FEC053"/>
			<stop  offset="0.3273" style="stop-color:#F2203E"/>
			<stop  offset="0.6485" style="stop-color:#B729A8"/>
			<stop  offset="1" style="stop-color:#5342D6"/>
		</radialGradient>
		<circle class="st2" cx="12.3" cy="3.7" r="1"/>
	</g>
</g>
</svg>
